<svg width="258" height="25" viewBox="0 0 258 25" fill="none" xmlns="http://www.w3.org/2000/svg">
<path d="M10.08 11.0395C10.13 10.7095 10.24 10.4195 10.38 10.1695C10.52 9.91953 10.72 9.70953 10.97 9.54953C11.21 9.39953 11.51 9.32954 11.88 9.31954C12.11 9.32954 12.32 9.36954 12.51 9.44954C12.71 9.53954 12.89 9.65953 13.03 9.80954C13.17 9.95954 13.28 10.1395 13.37 10.3395C13.46 10.5395 13.5 10.7595 13.51 10.9795H15.3C15.28 10.5095 15.19 10.0795 15.02 9.68954C14.85 9.29954 14.62 8.95954 14.32 8.67953C14.02 8.39953 13.66 8.17953 13.24 8.01954C12.82 7.85954 12.36 7.78954 11.85 7.78954C11.2 7.78954 10.63 7.89953 10.15 8.12953C9.67 8.35953 9.27 8.65953 8.95 9.04953C8.63 9.43953 8.39 9.88953 8.24 10.4095C8.09 10.9295 8 11.4695 8 12.0495V12.3195C8 12.8995 8.08 13.4395 8.23 13.9595C8.38 14.4795 8.62 14.9295 8.94 15.3095C9.26 15.6895 9.66 15.9995 10.14 16.2195C10.62 16.4395 11.19 16.5595 11.84 16.5595C12.31 16.5595 12.75 16.4795 13.16 16.3295C13.57 16.1795 13.93 15.9695 14.24 15.6995C14.55 15.4295 14.8 15.1195 14.98 14.7595C15.16 14.3995 15.27 14.0195 15.28 13.6095H13.49C13.48 13.8195 13.43 14.0095 13.34 14.1895C13.25 14.3695 13.13 14.5195 12.98 14.6495C12.83 14.7795 12.66 14.8795 12.46 14.9495C12.27 15.0195 12.07 15.0395 11.86 15.0495C11.5 15.0395 11.2 14.9695 10.97 14.8195C10.72 14.6595 10.52 14.4495 10.38 14.1995C10.24 13.9495 10.13 13.6495 10.08 13.3195C10.03 12.9895 10 12.6495 10 12.3195V12.0495C10 11.6995 10.03 11.3695 10.08 11.0395ZM12 2.17953C6.48 2.17953 2 6.65953 2 12.1795C2 17.6995 6.48 22.1795 12 22.1795C17.52 22.1795 22 17.6995 22 12.1795C22 6.65953 17.52 2.17953 12 2.17953ZM12 20.1795C7.59 20.1795 4 16.5895 4 12.1795C4 7.76954 7.59 4.17953 12 4.17953C16.41 4.17953 20 7.76954 20 12.1795C20 16.5895 16.41 20.1795 12 20.1795Z" fill="#667085"/>
<path d="M30.968 15.6995C31.992 14.8142 32.7973 14.0889 33.384 13.5235C33.9813 12.9475 34.4773 12.3502 34.872 11.7315C35.2667 11.1129 35.464 10.4942 35.464 9.87553C35.464 9.23553 35.3093 8.7342 35 8.37153C34.7013 8.00887 34.2267 7.82753 33.576 7.82753C32.9467 7.82753 32.456 8.0302 32.104 8.43553C31.7627 8.8302 31.5813 9.36353 31.56 10.0355H29.8C29.832 8.81953 30.1947 7.89153 30.888 7.25153C31.592 6.60087 32.4827 6.27553 33.56 6.27553C34.7227 6.27553 35.6293 6.59553 36.28 7.23553C36.9413 7.87553 37.272 8.72887 37.272 9.79553C37.272 10.5635 37.0747 11.3049 36.68 12.0195C36.296 12.7235 35.832 13.3582 35.288 13.9235C34.7547 14.4782 34.072 15.1235 33.24 15.8595L32.52 16.4995H37.592V18.0195H29.816V16.6915L30.968 15.6995ZM39.1944 12.1955C39.1944 10.3502 39.5037 8.9102 40.1224 7.87553C40.7517 6.8302 41.829 6.30753 43.3544 6.30753C44.8797 6.30753 45.9517 6.8302 46.5704 7.87553C47.1997 8.9102 47.5144 10.3502 47.5144 12.1955C47.5144 14.0622 47.1997 15.5235 46.5704 16.5795C45.9517 17.6249 44.8797 18.1475 43.3544 18.1475C41.829 18.1475 40.7517 17.6249 40.1224 16.5795C39.5037 15.5235 39.1944 14.0622 39.1944 12.1955ZM45.7224 12.1955C45.7224 11.3315 45.6637 10.6009 45.5464 10.0035C45.4397 9.4062 45.2157 8.92087 44.8744 8.54753C44.533 8.16353 44.0264 7.97153 43.3544 7.97153C42.6824 7.97153 42.1757 8.16353 41.8344 8.54753C41.493 8.92087 41.2637 9.4062 41.1464 10.0035C41.0397 10.6009 40.9864 11.3315 40.9864 12.1955C40.9864 13.0915 41.0397 13.8435 41.1464 14.4515C41.253 15.0595 41.477 15.5502 41.8184 15.9235C42.1704 16.2969 42.6824 16.4835 43.3544 16.4835C44.0264 16.4835 44.533 16.2969 44.8744 15.9235C45.2264 15.5502 45.4557 15.0595 45.5624 14.4515C45.669 13.8435 45.7224 13.0915 45.7224 12.1955ZM50.4524 15.6995C51.4764 14.8142 52.2817 14.0889 52.8684 13.5235C53.4657 12.9475 53.9617 12.3502 54.3564 11.7315C54.751 11.1129 54.9484 10.4942 54.9484 9.87553C54.9484 9.23553 54.7937 8.7342 54.4844 8.37153C54.1857 8.00887 53.711 7.82753 53.0604 7.82753C52.431 7.82753 51.9404 8.0302 51.5884 8.43553C51.247 8.8302 51.0657 9.36353 51.0444 10.0355H49.2844C49.3164 8.81953 49.679 7.89153 50.3724 7.25153C51.0764 6.60087 51.967 6.27553 53.0444 6.27553C54.207 6.27553 55.1137 6.59553 55.7644 7.23553C56.4257 7.87553 56.7564 8.72887 56.7564 9.79553C56.7564 10.5635 56.559 11.3049 56.1644 12.0195C55.7804 12.7235 55.3164 13.3582 54.7724 13.9235C54.239 14.4782 53.5564 15.1235 52.7244 15.8595L52.0044 16.4995H57.0764V18.0195H49.3004V16.6915L50.4524 15.6995ZM58.6468 9.39553C58.7108 8.40353 59.0894 7.6302 59.7828 7.07553C60.4868 6.52087 61.3828 6.24353 62.4708 6.24353C63.2174 6.24353 63.8628 6.37687 64.4068 6.64353C64.9508 6.9102 65.3614 7.27287 65.6388 7.73153C65.9161 8.1902 66.0548 8.70753 66.0548 9.28353C66.0548 9.94487 65.8788 10.5102 65.5268 10.9795C65.1748 11.4489 64.7534 11.7635 64.2628 11.9235V11.9875C64.8921 12.1795 65.3828 12.5315 65.7348 13.0435C66.0868 13.5449 66.2628 14.1902 66.2628 14.9795C66.2628 15.6089 66.1188 16.1689 65.8308 16.6595C65.5428 17.1502 65.1161 17.5395 64.5508 17.8275C63.9854 18.1049 63.3081 18.2435 62.5188 18.2435C61.3668 18.2435 60.4174 17.9502 59.6708 17.3635C58.9348 16.7662 58.5401 15.9129 58.4868 14.8035H60.2468C60.2894 15.3689 60.5081 15.8329 60.9028 16.1955C61.2974 16.5475 61.8308 16.7235 62.5028 16.7235C63.1534 16.7235 63.6548 16.5475 64.0068 16.1955C64.3588 15.8329 64.5348 15.3689 64.5348 14.8035C64.5348 14.0569 64.2948 13.5289 63.8148 13.2195C63.3454 12.8995 62.6201 12.7395 61.6388 12.7395H61.2228V11.2355H61.6548C62.5188 11.2249 63.1748 11.0809 63.6228 10.8035C64.0814 10.5262 64.3108 10.0889 64.3108 9.49153C64.3108 8.97953 64.1454 8.5742 63.8148 8.27553C63.4841 7.9662 63.0148 7.81153 62.4068 7.81153C61.8094 7.81153 61.3454 7.9662 61.0148 8.27553C60.6841 8.5742 60.4868 8.94753 60.4228 9.39553H58.6468ZM76.207 7.05953C77.391 7.05953 78.4257 7.28887 79.311 7.74753C80.207 8.19553 80.895 8.8462 81.375 9.69953C81.8657 10.5422 82.111 11.5289 82.111 12.6595C82.111 13.7902 81.8657 14.7715 81.375 15.6035C80.895 16.4355 80.207 17.0755 79.311 17.5235C78.4257 17.9609 77.391 18.1795 76.207 18.1795H72.575V7.05953H76.207ZM76.207 16.6915C77.5083 16.6915 78.5057 16.3395 79.199 15.6355C79.8923 14.9315 80.239 13.9395 80.239 12.6595C80.239 11.3689 79.8923 10.3609 79.199 9.63553C78.5057 8.9102 77.5083 8.54753 76.207 8.54753H74.399V16.6915H76.207ZM83.3108 12.5955C83.3108 11.5075 83.5614 10.5315 84.0628 9.66753C84.5748 8.80353 85.2628 8.13153 86.1268 7.65153C87.0014 7.16087 87.9561 6.91553 88.9908 6.91553C90.1748 6.91553 91.2254 7.20887 92.1428 7.79553C93.0708 8.37153 93.7428 9.19287 94.1588 10.2595H91.9668C91.6788 9.67287 91.2788 9.23553 90.7668 8.94753C90.2548 8.65953 89.6628 8.51553 88.9908 8.51553C88.2548 8.51553 87.5988 8.68087 87.0228 9.01153C86.4468 9.3422 85.9934 9.81687 85.6628 10.4355C85.3428 11.0542 85.1828 11.7742 85.1828 12.5955C85.1828 13.4169 85.3428 14.1369 85.6628 14.7555C85.9934 15.3742 86.4468 15.8542 87.0228 16.1955C87.5988 16.5262 88.2548 16.6915 88.9908 16.6915C89.6628 16.6915 90.2548 16.5475 90.7668 16.2595C91.2788 15.9715 91.6788 15.5342 91.9668 14.9475H94.1588C93.7428 16.0142 93.0708 16.8355 92.1428 17.4115C91.2254 17.9875 90.1748 18.2755 88.9908 18.2755C87.9454 18.2755 86.9908 18.0355 86.1268 17.5555C85.2628 17.0649 84.5748 16.3875 84.0628 15.5235C83.5614 14.6595 83.3108 13.6835 83.3108 12.5955ZM99.9578 18.2915C99.2111 18.2915 98.5391 18.1635 97.9418 17.9075C97.3444 17.6409 96.8751 17.2675 96.5338 16.7875C96.1924 16.3075 96.0218 15.7475 96.0218 15.1075H97.9738C98.0164 15.5875 98.2031 15.9822 98.5338 16.2915C98.8751 16.6009 99.3498 16.7555 99.9578 16.7555C100.587 16.7555 101.078 16.6062 101.43 16.3075C101.782 15.9982 101.958 15.6035 101.958 15.1235C101.958 14.7502 101.846 14.4462 101.622 14.2115C101.408 13.9769 101.136 13.7955 100.806 13.6675C100.486 13.5395 100.038 13.4009 99.4618 13.2515C98.7364 13.0595 98.1444 12.8675 97.6858 12.6755C97.2378 12.4729 96.8538 12.1635 96.5338 11.7475C96.2138 11.3315 96.0538 10.7769 96.0538 10.0835C96.0538 9.44353 96.2138 8.88353 96.5338 8.40353C96.8538 7.92353 97.3018 7.55553 97.8778 7.29953C98.4538 7.04353 99.1204 6.91553 99.8778 6.91553C100.955 6.91553 101.835 7.18753 102.518 7.73153C103.211 8.26487 103.595 9.00087 103.67 9.93953H101.654C101.622 9.5342 101.43 9.18753 101.078 8.89953C100.726 8.61153 100.262 8.46753 99.6858 8.46753C99.1631 8.46753 98.7364 8.60087 98.4058 8.86753C98.0751 9.1342 97.9098 9.5182 97.9098 10.0195C97.9098 10.3609 98.0111 10.6435 98.2138 10.8675C98.4271 11.0809 98.6938 11.2515 99.0138 11.3795C99.3338 11.5075 99.7711 11.6462 100.326 11.7955C101.062 11.9982 101.659 12.2009 102.118 12.4035C102.587 12.6062 102.982 12.9209 103.302 13.3475C103.632 13.7635 103.798 14.3235 103.798 15.0275C103.798 15.5929 103.643 16.1262 103.334 16.6275C103.035 17.1289 102.592 17.5342 102.006 17.8435C101.43 18.1422 100.747 18.2915 99.9578 18.2915ZM116.81 15.9075H112.154L111.354 18.1795H109.45L113.434 7.04353H115.546L119.53 18.1795H117.61L116.81 15.9075ZM116.298 14.4195L114.49 9.25153L112.666 14.4195H116.298ZM123.087 6.33953V18.1795H121.263V6.33953H123.087ZM127.305 6.33953V18.1795H125.481V6.33953H127.305ZM135.68 10.6435C135.947 10.1955 136.299 9.84887 136.736 9.60353C137.184 9.34753 137.712 9.21953 138.32 9.21953V11.1075H137.856C137.142 11.1075 136.598 11.2889 136.224 11.6515C135.862 12.0142 135.68 12.6435 135.68 13.5395V18.1795H133.856V9.36353H135.68V10.6435ZM140.925 8.19553C140.594 8.19553 140.317 8.08353 140.093 7.85953C139.869 7.63553 139.757 7.3582 139.757 7.02753C139.757 6.69687 139.869 6.41953 140.093 6.19553C140.317 5.97153 140.594 5.85953 140.925 5.85953C141.245 5.85953 141.517 5.97153 141.741 6.19553C141.965 6.41953 142.077 6.69687 142.077 7.02753C142.077 7.3582 141.965 7.63553 141.741 7.85953C141.517 8.08353 141.245 8.19553 140.925 8.19553ZM141.821 9.36353V18.1795H139.997V9.36353H141.821ZM147.768 9.21953C148.45 9.21953 149.053 9.3582 149.576 9.63553C150.109 9.9022 150.525 10.2382 150.824 10.6435V9.36353H152.664V18.3235C152.664 19.1342 152.493 19.8542 152.152 20.4835C151.81 21.1235 151.314 21.6249 150.664 21.9875C150.024 22.3502 149.256 22.5315 148.36 22.5315C147.165 22.5315 146.173 22.2489 145.384 21.6835C144.594 21.1289 144.146 20.3715 144.04 19.4115H145.848C145.986 19.8702 146.28 20.2382 146.728 20.5155C147.186 20.8035 147.73 20.9475 148.36 20.9475C149.096 20.9475 149.688 20.7235 150.136 20.2755C150.594 19.8275 150.824 19.1769 150.824 18.3235V16.8515C150.514 17.2675 150.093 17.6195 149.56 17.9075C149.037 18.1849 148.44 18.3235 147.768 18.3235C147 18.3235 146.296 18.1315 145.656 17.7475C145.026 17.3529 144.525 16.8089 144.152 16.1155C143.789 15.4115 143.608 14.6169 143.608 13.7315C143.608 12.8462 143.789 12.0622 144.152 11.3795C144.525 10.6969 145.026 10.1689 145.656 9.79553C146.296 9.41153 147 9.21953 147.768 9.21953ZM150.824 13.7635C150.824 13.1555 150.696 12.6275 150.44 12.1795C150.194 11.7315 149.869 11.3902 149.464 11.1555C149.058 10.9209 148.621 10.8035 148.152 10.8035C147.682 10.8035 147.245 10.9209 146.84 11.1555C146.434 11.3795 146.104 11.7155 145.848 12.1635C145.602 12.6009 145.48 13.1235 145.48 13.7315C145.48 14.3395 145.602 14.8729 145.848 15.3315C146.104 15.7902 146.434 16.1422 146.84 16.3875C147.256 16.6222 147.693 16.7395 148.152 16.7395C148.621 16.7395 149.058 16.6222 149.464 16.3875C149.869 16.1529 150.194 15.8115 150.44 15.3635C150.696 14.9049 150.824 14.3715 150.824 13.7635ZM159.619 9.21953C160.291 9.21953 160.889 9.36353 161.411 9.65153C161.945 9.93953 162.361 10.3662 162.659 10.9315C162.969 11.4969 163.123 12.1795 163.123 12.9795V18.1795H161.315V13.2515C161.315 12.4622 161.118 11.8595 160.723 11.4435C160.329 11.0169 159.79 10.8035 159.107 10.8035C158.425 10.8035 157.881 11.0169 157.475 11.4435C157.081 11.8595 156.883 12.4622 156.883 13.2515V18.1795H155.059V6.33953H156.883V10.3875C157.193 10.0142 157.582 9.7262 158.051 9.52353C158.531 9.32087 159.054 9.21953 159.619 9.21953ZM167.578 10.8515V15.7315C167.578 16.0622 167.653 16.3022 167.802 16.4515C167.962 16.5902 168.229 16.6595 168.602 16.6595H169.722V18.1795H168.282C167.461 18.1795 166.831 17.9875 166.394 17.6035C165.957 17.2195 165.738 16.5955 165.738 15.7315V10.8515H164.698V9.36353H165.738V7.17153H167.578V9.36353H169.722V10.8515H167.578ZM174.603 18.3235C173.91 18.3235 173.286 18.2009 172.731 17.9555C172.187 17.6995 171.755 17.3582 171.435 16.9315C171.115 16.4942 170.944 16.0089 170.923 15.4755H172.811C172.843 15.8489 173.019 16.1635 173.339 16.4195C173.67 16.6649 174.08 16.7875 174.571 16.7875C175.083 16.7875 175.478 16.6915 175.755 16.4995C176.043 16.2969 176.187 16.0409 176.187 15.7315C176.187 15.4009 176.027 15.1555 175.707 14.9955C175.398 14.8355 174.902 14.6595 174.219 14.4675C173.558 14.2862 173.019 14.1102 172.603 13.9395C172.187 13.7689 171.824 13.5075 171.515 13.1555C171.216 12.8035 171.067 12.3395 171.067 11.7635C171.067 11.2942 171.206 10.8675 171.483 10.4835C171.76 10.0889 172.155 9.77953 172.667 9.55553C173.19 9.33153 173.787 9.21953 174.459 9.21953C175.462 9.21953 176.267 9.47553 176.875 9.98753C177.494 10.4889 177.824 11.1769 177.867 12.0515H176.043C176.011 11.6569 175.851 11.3422 175.563 11.1075C175.275 10.8729 174.886 10.7555 174.395 10.7555C173.915 10.7555 173.547 10.8462 173.291 11.0275C173.035 11.2089 172.907 11.4489 172.907 11.7475C172.907 11.9822 172.992 12.1795 173.163 12.3395C173.334 12.4995 173.542 12.6275 173.787 12.7235C174.032 12.8089 174.395 12.9209 174.875 13.0595C175.515 13.2302 176.038 13.4062 176.443 13.5875C176.859 13.7582 177.216 14.0142 177.515 14.3555C177.814 14.6969 177.968 15.1502 177.979 15.7155C177.979 16.2169 177.84 16.6649 177.563 17.0595C177.286 17.4542 176.891 17.7635 176.379 17.9875C175.878 18.2115 175.286 18.3235 174.603 18.3235ZM185.93 10.6435C186.197 10.1955 186.549 9.84887 186.986 9.60353C187.434 9.34753 187.962 9.21953 188.57 9.21953V11.1075H188.106C187.392 11.1075 186.848 11.2889 186.474 11.6515C186.112 12.0142 185.93 12.6435 185.93 13.5395V18.1795H184.106V9.36353H185.93V10.6435ZM198.327 13.5555C198.327 13.8862 198.306 14.1849 198.263 14.4515H191.527C191.58 15.1555 191.842 15.7209 192.311 16.1475C192.78 16.5742 193.356 16.7875 194.039 16.7875C195.02 16.7875 195.714 16.3769 196.119 15.5555H198.087C197.82 16.3662 197.335 17.0329 196.631 17.5555C195.938 18.0675 195.074 18.3235 194.039 18.3235C193.196 18.3235 192.439 18.1369 191.767 17.7635C191.106 17.3795 190.583 16.8462 190.199 16.1635C189.826 15.4702 189.639 14.6702 189.639 13.7635C189.639 12.8569 189.82 12.0622 190.183 11.3795C190.556 10.6862 191.074 10.1529 191.735 9.77953C192.407 9.4062 193.175 9.21953 194.039 9.21953C194.871 9.21953 195.612 9.40087 196.263 9.76353C196.914 10.1262 197.42 10.6382 197.783 11.2995C198.146 11.9502 198.327 12.7022 198.327 13.5555ZM196.423 12.9795C196.412 12.3075 196.172 11.7689 195.703 11.3635C195.234 10.9582 194.652 10.7555 193.959 10.7555C193.33 10.7555 192.791 10.9582 192.343 11.3635C191.895 11.7582 191.628 12.2969 191.543 12.9795H196.423ZM203.322 18.3235C202.629 18.3235 202.005 18.2009 201.45 17.9555C200.906 17.6995 200.474 17.3582 200.154 16.9315C199.834 16.4942 199.663 16.0089 199.642 15.4755H201.53C201.562 15.8489 201.738 16.1635 202.058 16.4195C202.389 16.6649 202.799 16.7875 203.29 16.7875C203.802 16.7875 204.197 16.6915 204.474 16.4995C204.762 16.2969 204.906 16.0409 204.906 15.7315C204.906 15.4009 204.746 15.1555 204.426 14.9955C204.117 14.8355 203.621 14.6595 202.938 14.4675C202.277 14.2862 201.738 14.1102 201.322 13.9395C200.906 13.7689 200.543 13.5075 200.234 13.1555C199.935 12.8035 199.786 12.3395 199.786 11.7635C199.786 11.2942 199.925 10.8675 200.202 10.4835C200.479 10.0889 200.874 9.77953 201.386 9.55553C201.909 9.33153 202.506 9.21953 203.178 9.21953C204.181 9.21953 204.986 9.47553 205.594 9.98753C206.213 10.4889 206.543 11.1769 206.586 12.0515H204.762C204.73 11.6569 204.57 11.3422 204.282 11.1075C203.994 10.8729 203.605 10.7555 203.114 10.7555C202.634 10.7555 202.266 10.8462 202.01 11.0275C201.754 11.2089 201.626 11.4489 201.626 11.7475C201.626 11.9822 201.711 12.1795 201.882 12.3395C202.053 12.4995 202.261 12.6275 202.506 12.7235C202.751 12.8089 203.114 12.9209 203.594 13.0595C204.234 13.2302 204.757 13.4062 205.162 13.5875C205.578 13.7582 205.935 14.0142 206.234 14.3555C206.533 14.6969 206.687 15.1502 206.698 15.7155C206.698 16.2169 206.559 16.6649 206.282 17.0595C206.005 17.4542 205.61 17.7635 205.098 17.9875C204.597 18.2115 204.005 18.3235 203.322 18.3235ZM216.749 13.5555C216.749 13.8862 216.727 14.1849 216.685 14.4515H209.949C210.002 15.1555 210.263 15.7209 210.733 16.1475C211.202 16.5742 211.778 16.7875 212.461 16.7875C213.442 16.7875 214.135 16.3769 214.541 15.5555H216.509C216.242 16.3662 215.757 17.0329 215.053 17.5555C214.359 18.0675 213.495 18.3235 212.461 18.3235C211.618 18.3235 210.861 18.1369 210.189 17.7635C209.527 17.3795 209.005 16.8462 208.621 16.1635C208.247 15.4702 208.061 14.6702 208.061 13.7635C208.061 12.8569 208.242 12.0622 208.605 11.3795C208.978 10.6862 209.495 10.1529 210.157 9.77953C210.829 9.4062 211.597 9.21953 212.461 9.21953C213.293 9.21953 214.034 9.40087 214.685 9.76353C215.335 10.1262 215.842 10.6382 216.205 11.2995C216.567 11.9502 216.749 12.7022 216.749 13.5555ZM214.845 12.9795C214.834 12.3075 214.594 11.7689 214.125 11.3635C213.655 10.9582 213.074 10.7555 212.381 10.7555C211.751 10.7555 211.213 10.9582 210.765 11.3635C210.317 11.7582 210.05 12.2969 209.965 12.9795H214.845ZM220.368 10.6435C220.634 10.1955 220.986 9.84887 221.424 9.60353C221.872 9.34753 222.4 9.21953 223.008 9.21953V11.1075H222.544C221.829 11.1075 221.285 11.2889 220.912 11.6515C220.549 12.0142 220.368 12.6435 220.368 13.5395V18.1795H218.544V9.36353H220.368V10.6435ZM228.092 16.5475L230.588 9.36353H232.524L229.164 18.1795H226.988L223.644 9.36353H225.596L228.092 16.5475ZM241.983 13.5555C241.983 13.8862 241.962 14.1849 241.919 14.4515H235.183C235.236 15.1555 235.498 15.7209 235.967 16.1475C236.436 16.5742 237.012 16.7875 237.695 16.7875C238.676 16.7875 239.37 16.3769 239.775 15.5555H241.743C241.476 16.3662 240.991 17.0329 240.287 17.5555C239.594 18.0675 238.73 18.3235 237.695 18.3235C236.852 18.3235 236.095 18.1369 235.423 17.7635C234.762 17.3795 234.239 16.8462 233.855 16.1635C233.482 15.4702 233.295 14.6702 233.295 13.7635C233.295 12.8569 233.476 12.0622 233.839 11.3795C234.212 10.6862 234.73 10.1529 235.391 9.77953C236.063 9.4062 236.831 9.21953 237.695 9.21953C238.527 9.21953 239.268 9.40087 239.919 9.76353C240.57 10.1262 241.076 10.6382 241.439 11.2995C241.802 11.9502 241.983 12.7022 241.983 13.5555ZM240.079 12.9795C240.068 12.3075 239.828 11.7689 239.359 11.3635C238.89 10.9582 238.308 10.7555 237.615 10.7555C236.986 10.7555 236.447 10.9582 235.999 11.3635C235.551 11.7582 235.284 12.2969 235.199 12.9795H240.079ZM243.17 13.7315C243.17 12.8462 243.351 12.0622 243.714 11.3795C244.087 10.6969 244.589 10.1689 245.218 9.79553C245.858 9.41153 246.567 9.21953 247.346 9.21953C247.922 9.21953 248.487 9.34753 249.042 9.60353C249.607 9.84887 250.055 10.1795 250.386 10.5955V6.33953H252.226V18.1795H250.386V16.8515C250.087 17.2782 249.671 17.6302 249.138 17.9075C248.615 18.1849 248.013 18.3235 247.33 18.3235C246.562 18.3235 245.858 18.1315 245.218 17.7475C244.589 17.3529 244.087 16.8089 243.714 16.1155C243.351 15.4115 243.17 14.6169 243.17 13.7315ZM250.386 13.7635C250.386 13.1555 250.258 12.6275 250.002 12.1795C249.757 11.7315 249.431 11.3902 249.026 11.1555C248.621 10.9209 248.183 10.8035 247.714 10.8035C247.245 10.8035 246.807 10.9209 246.402 11.1555C245.997 11.3795 245.666 11.7155 245.41 12.1635C245.165 12.6009 245.042 13.1235 245.042 13.7315C245.042 14.3395 245.165 14.8729 245.41 15.3315C245.666 15.7902 245.997 16.1422 246.402 16.3875C246.818 16.6222 247.255 16.7395 247.714 16.7395C248.183 16.7395 248.621 16.6222 249.026 16.3875C249.431 16.1529 249.757 15.8115 250.002 15.3635C250.258 14.9049 250.386 14.3715 250.386 13.7635ZM255.358 18.2915C255.027 18.2915 254.75 18.1795 254.526 17.9555C254.302 17.7315 254.19 17.4542 254.19 17.1235C254.19 16.7929 254.302 16.5155 254.526 16.2915C254.75 16.0675 255.027 15.9555 255.358 15.9555C255.678 15.9555 255.95 16.0675 256.174 16.2915C256.398 16.5155 256.51 16.7929 256.51 17.1235C256.51 17.4542 256.398 17.7315 256.174 17.9555C255.95 18.1795 255.678 18.2915 255.358 18.2915Z" fill="#667085"/>
</svg>
