<svg width="122" height="123" viewBox="0 0 122 123" fill="none" xmlns="http://www.w3.org/2000/svg">
<g clip-path="url(#clip0_557_1064)">
<path d="M58.9214 104.824C58.6121 106.061 57.8982 107.16 56.8931 107.945C55.888 108.73 54.6494 109.156 53.3742 109.156C52.9051 109.155 52.4379 109.097 51.9826 108.985L36.7326 105.172C36.0975 105.017 35.4944 104.753 34.9503 104.391L23.5128 96.7656C22.2488 95.9239 21.3711 94.6145 21.0726 93.1255C20.7741 91.6366 21.0793 90.09 21.921 88.8261C22.7628 87.5622 24.0722 86.6844 25.5611 86.3859C27.0501 86.0874 28.5966 86.3926 29.8606 87.2344L40.4736 94.3113L54.7705 97.8856C56.2409 98.2556 57.5041 99.1944 58.2825 100.496C59.0609 101.797 59.2907 103.354 58.9214 104.824ZM121.523 58.9981C121.131 60.1853 120.508 61.2834 119.69 62.2289C118.872 63.1744 117.876 63.9487 116.757 64.5071L105.858 69.959L80.3238 96.0412C79.6255 96.7402 78.7579 97.2463 77.8058 97.5102C76.8537 97.7741 75.8495 97.7869 74.891 97.5472L44.391 89.9222C43.6754 89.7418 43.0009 89.4264 42.4037 88.9929L16.6789 70.2116L5.26995 64.4928C4.14831 63.9354 3.14753 63.1624 2.32484 62.2179C1.50214 61.2735 0.873659 60.1762 0.475324 58.9887C0.0769878 57.8012 -0.0833909 56.5469 0.00335641 55.2974C0.0901038 54.0478 0.422276 52.8277 0.980882 51.7066L12.8664 28.0405C13.9972 25.7803 15.9795 24.0617 18.3772 23.2627C20.775 22.4638 23.3919 22.6499 25.6525 23.7801L35.4649 28.6934L59.3931 21.6975C60.4421 21.3925 61.5562 21.3925 62.6052 21.6975L86.5334 28.6934L96.3649 23.7753C98.6241 22.6515 101.237 22.4694 103.63 23.2689C106.023 24.0685 108.002 25.7844 109.132 28.0405L120.975 51.7209C121.543 52.8373 121.884 54.0554 121.978 55.3046C122.072 56.5537 121.917 57.8092 121.523 58.9981ZM95.4546 64.3594L83.5406 40.5313H70.9403L52.7356 58.1879C60.2462 61.6477 67.5853 58.2784 72.1889 53.6367C73.183 52.6375 74.5111 52.0405 75.9184 51.9605C77.3256 51.8804 78.7129 52.3229 79.8139 53.203L94.7112 65.1171L95.4546 64.3594ZM12.0896 55.1284L17.1078 57.6398L27.2442 37.3716L22.2213 34.8602L12.0896 55.1284ZM86.7335 73.4141L76.3921 65.1076C66.6274 72.3942 54.5417 73.1091 44.4624 66.6564C43.2597 65.8898 42.2444 64.8631 41.4912 63.6519C40.7381 62.4406 40.2664 61.0759 40.1109 59.6581C39.9554 58.2403 40.1201 56.8058 40.5928 55.4601C41.0655 54.1144 41.8342 52.892 42.8421 51.883L42.8993 51.8258L61.8665 33.3828L60.9992 33.1445L38.9153 39.602L26.944 63.5445L48.2225 79.0995L74.4954 85.6665L86.7335 73.4141ZM109.89 55.1331L99.7771 34.8602L94.7541 37.3716L104.891 57.6398L109.89 55.1331Z" fill="#105CAD"/>
</g>
<defs>
<clipPath id="clip0_557_1064">
<rect width="122" height="122" fill="white" transform="translate(0 0.5)"/>
</clipPath>
</defs>
</svg>
