<svg width="123" height="122" viewBox="0 0 123 122" fill="none" xmlns="http://www.w3.org/2000/svg">
<path d="M35.7656 29.7852C35.2414 29.7852 34.8125 30.2141 34.8125 30.7383V36.457C34.8125 36.9813 35.2414 37.4102 35.7656 37.4102H81.5156C82.0398 37.4102 82.4688 36.9813 82.4688 36.457V30.7383C82.4688 30.2141 82.0398 29.7852 81.5156 29.7852H35.7656ZM57.6875 46.9414H35.7656C35.2414 46.9414 34.8125 47.3703 34.8125 47.8945V53.6133C34.8125 54.1375 35.2414 54.5664 35.7656 54.5664H57.6875C58.2117 54.5664 58.6406 54.1375 58.6406 53.6133V47.8945C58.6406 47.3703 58.2117 46.9414 57.6875 46.9414ZM51.9688 101.508H25.2812V17.6328H92V55.7578C92 56.282 92.4289 56.7109 92.9531 56.7109H99.625C100.149 56.7109 100.578 56.282 100.578 55.7578V12.8672C100.578 10.7584 98.8744 9.05469 96.7656 9.05469H20.5156C18.4068 9.05469 16.7031 10.7584 16.7031 12.8672V106.273C16.7031 108.382 18.4068 110.086 20.5156 110.086H51.9688C52.493 110.086 52.9219 109.657 52.9219 109.133V102.461C52.9219 101.937 52.493 101.508 51.9688 101.508ZM104.391 91.0234H87.2344V86.6629C92.7506 85.0188 96.7656 79.9195 96.7656 73.8672C96.7656 66.4924 90.7967 60.5234 83.4219 60.5234C76.0471 60.5234 70.0781 66.4924 70.0781 73.8672C70.0781 79.9076 74.0932 85.0188 79.6094 86.6629V91.0234H62.4531C61.4047 91.0234 60.5469 91.8812 60.5469 92.9297V111.039C60.5469 112.088 61.4047 112.945 62.4531 112.945H104.391C105.439 112.945 106.297 112.088 106.297 111.039V92.9297C106.297 91.8812 105.439 91.0234 104.391 91.0234ZM77.4648 73.8672C77.4648 70.5789 80.1336 67.9102 83.4219 67.9102C86.7102 67.9102 89.3789 70.5789 89.3789 73.8672C89.3789 77.1555 86.7102 79.8242 83.4219 79.8242C80.1336 79.8242 77.4648 77.1555 77.4648 73.8672ZM98.9102 105.559H67.9336V98.4102H98.9102V105.559Z" fill="#105CAD"/>
</svg>
