<svg width="123" height="122" viewBox="0 0 123 122" fill="none" xmlns="http://www.w3.org/2000/svg">
<path d="M101.608 51.367C100.51 48.778 99.1666 46.2996 97.5973 43.9657L89.1691 49.654C91.5981 53.2648 93.3022 57.3133 94.1864 61.5744C95.0875 66.016 95.0875 70.5934 94.1864 75.035C93.7449 77.1805 93.091 79.2767 92.2344 81.2926C91.4017 83.2734 90.3749 85.1668 89.1691 86.9453C86.7597 90.4986 83.6958 93.5608 80.1411 95.9682C76.5333 98.396 72.4884 100.1 68.2309 100.985C63.7915 101.875 59.2197 101.875 54.7804 100.985C48.3909 99.6728 42.5278 96.5124 37.919 91.8965C34.8745 88.8502 32.4446 85.2468 30.7616 81.2825C29.9124 79.2664 29.2621 77.1723 28.8198 75.03C27.4779 68.4144 28.1544 61.5483 30.7616 55.3219C32.4381 51.3583 34.867 47.7573 37.9139 44.718C40.9594 41.6788 44.5588 39.2509 48.5177 37.5658C50.5256 36.7169 52.6352 36.0611 54.7702 35.624C55.3141 35.5121 55.8682 35.4613 56.4172 35.3749V50.8333L81.8339 30.5L56.4172 10.1666V25.1015C55.1814 25.2383 53.9519 25.4265 52.7318 25.6657C47.1612 26.8072 41.8703 29.0355 37.1615 32.2232C28.7968 37.8658 22.6513 46.2382 19.7752 55.9096C16.8991 65.581 17.471 75.951 21.393 85.2475C23.5765 90.4235 26.7445 95.1262 30.721 99.0945C34.692 103.058 39.3878 106.221 44.5527 108.412C52.6725 111.848 61.6451 112.732 70.2794 110.949C77.191 109.52 83.6525 106.435 89.1085 101.958C94.5646 97.4815 98.8522 91.747 101.603 85.2475C102.721 82.6041 103.58 79.854 104.145 77.0735C105.323 71.287 105.323 65.3224 104.145 59.536C103.566 56.7373 102.716 54.0015 101.608 51.367Z" fill="#105CAD"/>
</svg>
