<svg width="122" height="123" viewBox="0 0 122 123" fill="none" xmlns="http://www.w3.org/2000/svg">
<path d="M20.3327 102.167C17.5369 102.167 15.1426 101.17 13.1499 99.1776C11.1573 97.1849 10.1626 94.7924 10.166 91.9999V30.9999C10.166 28.2041 11.1624 25.8098 13.155 23.8172C15.1477 21.8245 17.5402 20.8299 20.3327 20.8333H101.666C104.462 20.8333 106.856 21.8296 108.849 23.8223C110.841 25.8149 111.836 28.2075 111.833 30.9999V91.9999C111.833 94.7958 110.836 97.19 108.844 99.1827C106.851 101.175 104.458 102.17 101.666 102.167H20.3327ZM20.3327 91.9999H73.7077V74.2083H20.3327V91.9999ZM83.8744 91.9999H101.666V46.2499H83.8744V91.9999ZM20.3327 64.0416H73.7077V46.2499H20.3327V64.0416Z" fill="#105CAD"/>
</svg>
