<svg width="122" height="123" viewBox="0 0 122 123" fill="none" xmlns="http://www.w3.org/2000/svg">
<path d="M106.75 56.4166C106.75 84.6291 87.23 111.012 61 117.417C34.77 111.012 15.25 84.6291 15.25 56.4166V25.9166L61 5.58325L106.75 25.9166V56.4166ZM61 107.25C80.0625 102.167 96.5833 79.4949 96.5833 57.5349V32.5249L61 16.6649L25.4167 32.5249V57.5349C25.4167 79.4949 41.9375 102.167 61 107.25ZM75.2333 56.4166V48.7916C75.2333 41.6749 68.1167 36.0833 61 36.0833C53.8833 36.0833 46.7667 41.6749 46.7667 48.7916V56.4166C43.7167 56.4166 40.6667 59.4666 40.6667 62.5166V80.3082C40.6667 83.8666 43.7167 86.9166 46.7667 86.9166H74.725C78.2833 86.9166 81.3333 83.8666 81.3333 80.8166V63.0249C81.3333 59.4666 78.2833 56.4166 75.2333 56.4166ZM68.625 56.4166H53.375V48.7916C53.375 44.7249 56.9333 42.1833 61 42.1833C65.0667 42.1833 68.625 44.7249 68.625 48.7916V56.4166Z" fill="#105CAD"/>
</svg>
