<svg width="24" height="25" viewBox="0 0 24 25" fill="none" xmlns="http://www.w3.org/2000/svg">
<g clip-path="url(#clip0_551_1046)">
<path d="M0.512578 12.3552C0.512016 14.3875 1.04302 16.3718 2.0527 18.1208L0.416016 24.0966L6.53152 22.4931C8.22298 23.4139 10.1181 23.8964 12.044 23.8965H12.0491C18.4067 23.8965 23.582 18.7231 23.5847 12.3643C23.586 9.28306 22.3871 6.38562 20.2089 4.20575C18.0311 2.02606 15.1347 0.82503 12.0486 0.823624C5.6902 0.823624 0.515297 5.99675 0.512672 12.3552" fill="url(#paint0_linear_551_1046)"/>
<path d="M0.100313 12.3515C0.0996563 14.4568 0.649687 16.5121 1.69537 18.3237L0 24.5138L6.33478 22.8528C8.08022 23.8045 10.0454 24.3062 12.0451 24.307H12.0502C18.636 24.307 23.9972 18.9475 24 12.3611C24.0011 9.16906 22.7591 6.16747 20.5031 3.9095C18.2468 1.65181 15.2468 0.407563 12.0502 0.40625C5.46337 0.40625 0.102938 5.765 0.100313 12.3515ZM3.87281 18.0118L3.63628 17.6363C2.64197 16.0553 2.11716 14.2283 2.11791 12.3523C2.12006 6.87772 6.57544 2.42375 12.054 2.42375C14.7071 2.42488 17.2005 3.45913 19.0759 5.33563C20.9512 7.21231 21.9831 9.707 21.9824 12.3603C21.98 17.8348 17.5245 22.2894 12.0502 22.2894H12.0463C10.2638 22.2884 8.51569 21.8097 6.99113 20.9052L6.62831 20.69L2.86912 21.6756L3.87281 18.0117V18.0118Z" fill="url(#paint1_linear_551_1046)"/>
<path d="M9.06383 7.35763C8.84014 6.86048 8.60473 6.85044 8.39202 6.84172C8.21783 6.83422 8.0187 6.83479 7.81977 6.83479C7.62064 6.83479 7.29711 6.90969 7.02364 7.20829C6.74989 7.50716 5.97852 8.22941 5.97852 9.69838C5.97852 11.1674 7.04848 12.5871 7.19764 12.7865C7.34698 12.9855 9.26323 16.0965 12.2981 17.2933C14.8204 18.2879 15.3336 18.0901 15.881 18.0403C16.4285 17.9906 17.6477 17.3182 17.8964 16.621C18.1453 15.9239 18.1453 15.3263 18.0707 15.2014C17.996 15.077 17.7969 15.0023 17.4983 14.853C17.1996 14.7037 15.7317 13.9814 15.458 13.8817C15.1843 13.7821 14.9853 13.7324 14.7861 14.0314C14.587 14.3299 14.0152 15.0023 13.841 15.2014C13.6669 15.401 13.4926 15.4258 13.1941 15.2765C12.8953 15.1267 11.9337 14.8118 10.7929 13.7947C9.90523 13.0033 9.30598 12.0259 9.1318 11.7269C8.95761 11.4284 9.11314 11.2666 9.26286 11.1179C9.39702 10.9841 9.56155 10.7692 9.71098 10.5949C9.85986 10.4205 9.90955 10.2961 10.0091 10.097C10.1088 9.89769 10.0589 9.72332 9.98436 9.57398C9.90955 9.42463 9.32933 7.94798 9.06383 7.35763Z" fill="white"/>
</g>
<defs>
<linearGradient id="paint0_linear_551_1046" x1="1158.85" y1="2328.12" x2="1158.85" y2="0.823624" gradientUnits="userSpaceOnUse">
<stop stop-color="#1FAF38"/>
<stop offset="1" stop-color="#60D669"/>
</linearGradient>
<linearGradient id="paint1_linear_551_1046" x1="1200" y1="2411.16" x2="1200" y2="0.40625" gradientUnits="userSpaceOnUse">
<stop stop-color="#F9F9F9"/>
<stop offset="1" stop-color="white"/>
</linearGradient>
<clipPath id="clip0_551_1046">
<rect width="24" height="24.1875" fill="white" transform="translate(0 0.40625)"/>
</clipPath>
</defs>
</svg>
