<svg width="89" height="122" viewBox="0 0 89 122" fill="none" xmlns="http://www.w3.org/2000/svg">
<path d="M89 44.7339C89 19.9266 68.9746 0 44.5 0C20.0254 0 0 20.1307 0 44.7339C0 61.8121 10.3151 76.8621 24.2716 84.3831L20.2284 122L44.5 105.734L68.7716 122L64.7243 84.3831C78.8878 76.858 89 61.8121 89 44.7339ZM44.5 85.3992C22.047 85.3992 4.0473 67.1008 4.0473 44.7339C4.0473 22.1629 22.25 4.06449 44.5 4.06449C66.75 4.06449 84.9527 22.3629 84.9527 44.7298C84.972 50.0757 83.9389 55.3726 81.9128 60.3153C79.8868 65.258 76.9079 69.7489 73.1477 73.5292C69.3875 77.3096 64.9204 80.3046 60.0037 82.3418C55.087 84.379 49.8179 85.4181 44.5 85.3992ZM62.7027 28.0597L68.7716 34.1605L41.4635 61.6121L26.2932 46.3621L32.3622 40.2613L41.4635 49.4105L62.7027 28.0597Z" fill="#105CAD"/>
</svg>
