<svg width="83" height="102" viewBox="0 0 83 102" fill="none" xmlns="http://www.w3.org/2000/svg">
<path d="M56.7506 10.3334H11.0006V91.6668H72.0006V25.5834H56.7506V10.3334ZM11.0006 0.166748H61.834L82.1673 20.5001V91.6668C82.1673 94.3631 81.0962 96.9491 79.1896 98.8557C77.2829 100.762 74.697 101.833 72.0006 101.833H11.0006C8.30428 101.833 5.71835 100.762 3.81173 98.8557C1.90511 96.9491 0.833984 94.3631 0.833984 91.6668V10.3334C0.833984 7.63705 1.90511 5.05112 3.81173 3.1445C5.71835 1.23788 8.30428 0.166748 11.0006 0.166748ZM21.1673 45.9168H61.834V56.0834H21.1673V45.9168ZM21.1673 66.2501H61.834V76.4168H21.1673V66.2501Z" fill="#105CAD"/>
</svg>
