<svg width="123" height="122" viewBox="0 0 123 122" fill="none" xmlns="http://www.w3.org/2000/svg">
<path fill-rule="evenodd" clip-rule="evenodd" d="M15.75 15.25H94.5417V27.9583H89.4583V20.3333H20.8333V78.7917H75.192V83.875H15.75V15.25ZM92 48.2917C94.0223 48.2917 95.9617 47.4883 97.3917 46.0584C98.8217 44.6284 99.625 42.6889 99.625 40.6667C99.625 38.6444 98.8217 36.7049 97.3917 35.275C95.9617 33.845 94.0223 33.0417 92 33.0417C89.9777 33.0417 88.0383 33.845 86.6083 35.275C85.1784 36.7049 84.375 38.6444 84.375 40.6667C84.375 42.6889 85.1784 44.6284 86.6083 46.0584C88.0383 47.4883 89.9777 48.2917 92 48.2917ZM97.1621 53.4004C100.464 53.4004 103.077 54.8847 104.787 57.1773C106.386 59.325 107.062 61.9811 107.214 64.4338C107.364 66.9498 107.021 69.4707 106.205 71.8555C105.443 74.0667 104.154 76.3542 102.167 77.9224V102.937C102.169 103.895 101.81 104.819 101.162 105.524C100.514 106.23 99.6237 106.665 98.6691 106.744C97.7145 106.823 96.7651 106.54 96.0097 105.951C95.2543 105.362 94.7484 104.51 94.5925 103.565L91.3138 83.875H90.5563L86.8506 103.639C86.6746 104.572 86.157 105.405 85.399 105.977C84.641 106.548 83.697 106.816 82.7519 106.728C81.8067 106.641 80.9282 106.204 80.2883 105.502C79.6483 104.801 79.293 103.887 79.2917 102.937V66.6755C78.7834 67.4498 78.2818 68.2284 77.787 69.0113L77.5888 69.324L77.5379 69.4053L77.5252 69.4282C77.1827 69.9782 76.7056 70.4318 76.139 70.7462C75.5724 71.0606 74.9351 71.2254 74.2871 71.2251H61.5788C60.5677 71.2251 59.5979 70.8234 58.8829 70.1085C58.168 69.3935 57.7663 68.4238 57.7663 67.4126C57.7663 66.4015 58.168 65.4318 58.8829 64.7168C59.5979 64.0018 60.5677 63.6001 61.5788 63.6001H72.1953C72.813 62.6445 73.6263 61.4041 74.4803 60.1587C75.3699 58.8599 76.351 57.4849 77.2253 56.4072C77.6498 55.8811 78.125 55.3321 78.6029 54.8822C78.8367 54.6611 79.162 54.3739 79.5585 54.1197C80.2583 53.6604 81.0752 53.4116 81.9121 53.403L97.1621 53.4004Z" fill="#105CAD"/>
</svg>
