<svg width="93" height="112" viewBox="0 0 93 112" fill="none" xmlns="http://www.w3.org/2000/svg">
<path d="M92.25 50.9167C92.25 79.1292 72.73 105.512 46.5 111.917C20.27 105.512 0.75 79.1292 0.75 50.9167V20.4167L46.5 0.083374L92.25 20.4167V50.9167ZM46.5 101.75C65.5625 96.6667 82.0833 73.995 82.0833 52.035V27.025L46.5 11.165L10.9167 27.025V52.035C10.9167 73.995 27.4375 96.6667 46.5 101.75ZM60.7333 50.9167V43.2917C60.7333 36.175 53.6167 30.5834 46.5 30.5834C39.3833 30.5834 32.2667 36.175 32.2667 43.2917V50.9167C29.2167 50.9167 26.1667 53.9667 26.1667 57.0167V74.8084C26.1667 78.3667 29.2167 81.4167 32.2667 81.4167H60.225C63.7833 81.4167 66.8333 78.3667 66.8333 75.3167V57.525C66.8333 53.9667 63.7833 50.9167 60.7333 50.9167ZM54.125 50.9167H38.875V43.2917C38.875 39.225 42.4333 36.6834 46.5 36.6834C50.5667 36.6834 54.125 39.225 54.125 43.2917V50.9167Z" fill="#105CAD"/>
</svg>
