<svg width="24" height="25" viewBox="0 0 24 25" fill="none" xmlns="http://www.w3.org/2000/svg">
<path d="M17.46 5.5C17.4 6.39 17.25 7.26 17.01 8.09L18.21 9.29C18.62 8.09 18.88 6.82 18.97 5.5H17.46ZM7.6 17.52C6.75 17.76 5.88 17.91 5 17.97V19.46C6.32 19.37 7.59 19.11 8.8 18.71L7.6 17.52ZM16.5 3.5H20C20.55 3.5 21 3.95 21 4.5C21 13.89 13.39 21.5 4 21.5C3.45 21.5 3 21.05 3 20.5V17.01C3 16.46 3.45 16.01 4 16.01C5.24 16.01 6.45 15.81 7.57 15.44C7.67 15.4 7.78 15.39 7.88 15.39C8.14 15.39 8.39 15.49 8.59 15.68L10.79 17.88C13.62 16.43 15.94 14.12 17.38 11.29L15.18 9.09C14.9 8.81 14.82 8.42 14.93 8.07C15.3 6.95 15.5 5.75 15.5 4.5C15.5 3.95 15.95 3.5 16.5 3.5Z" fill="#105CAD"/>
</svg>
