<svg width="122" height="123" viewBox="0 0 122 123" fill="none" xmlns="http://www.w3.org/2000/svg">
<path d="M109.014 48.1801C107.336 46.4311 105.606 44.6249 105.039 43.2572C104.534 42.0372 104.496 39.5257 104.463 37.3145C104.391 32.5488 104.3 26.6204 100.088 22.4123C95.8748 18.2043 89.9512 18.1233 85.1855 18.0375C82.9743 18.0041 80.4628 17.966 79.2428 17.4609C77.8751 16.8938 76.0689 15.1638 74.3199 13.4863C70.9459 10.2505 66.7426 6.21875 61 6.21875C55.2574 6.21875 51.0541 10.2505 47.6801 13.4863C45.9311 15.1638 44.1249 16.8938 42.7572 17.4609C41.5372 17.966 39.0257 18.0041 36.8145 18.0375C32.0488 18.1328 26.1204 18.1995 21.9219 22.4219C17.7234 26.6442 17.6328 32.5488 17.5375 37.3145C17.5041 39.5257 17.466 42.0372 16.9609 43.2572C16.3938 44.6249 14.6638 46.4311 12.9863 48.1801C9.75047 51.5541 5.71875 55.7812 5.71875 61.5C5.71875 67.2188 9.75047 71.4459 12.9863 74.8438C14.6638 76.5927 16.3938 78.3989 16.9609 79.7666C17.466 80.9866 17.5041 83.4981 17.5375 85.7094C17.609 90.475 17.6995 96.4034 21.9123 100.611C26.1252 104.82 32.0488 104.901 36.8145 104.986C39.0257 105.02 41.5372 105.058 42.7572 105.563C44.1249 106.13 45.9311 107.86 47.6801 109.537C51.0541 112.75 55.2812 116.781 61 116.781C66.7188 116.781 70.9459 112.75 74.3199 109.514C76.0689 107.836 77.8751 106.106 79.2428 105.539C80.4628 105.034 82.9743 104.996 85.1855 104.963C89.9512 104.891 95.8796 104.8 100.088 100.588C104.296 96.3748 104.377 90.4512 104.463 85.6855C104.496 83.4743 104.534 80.9628 105.039 79.7428C105.606 78.3751 107.336 76.5689 109.014 74.8199C112.25 71.4459 116.281 67.2426 116.281 61.5C116.281 55.7574 112.25 51.5541 109.014 48.1801ZM100.76 66.9042C98.4626 69.287 95.8605 72.013 94.4738 75.368C93.1298 78.6086 93.0774 82.1161 93.0441 85.514C93.0059 88.0684 92.9535 91.5711 92.0195 92.5004C91.0854 93.4297 87.5874 93.4869 85.033 93.525C81.6352 93.5774 78.1277 93.6298 74.887 94.9547C71.5511 96.3415 68.8204 98.9435 66.4233 101.241C64.7077 102.885 62.1437 105.344 61 105.344C59.8563 105.344 57.2923 102.885 55.5958 101.26C53.213 98.9626 50.487 96.3605 47.132 94.9738C43.8914 93.6298 40.3839 93.5774 36.986 93.5441C34.4316 93.5059 30.9289 93.4535 29.9996 92.5195C29.0703 91.5854 29.0131 88.0874 28.975 85.533C28.9226 82.1352 28.8702 78.6277 27.5453 75.387C26.1585 72.0511 23.5565 69.3204 21.2595 66.9233C19.6153 65.2077 17.1562 62.6437 17.1562 61.5C17.1562 60.3563 19.6153 57.7923 21.2404 56.0958C23.5374 53.713 26.1395 50.987 27.5262 47.632C28.8702 44.3914 28.9226 40.8839 28.9559 37.486C29.0131 34.9316 29.0703 31.4289 30.0234 30.5234C30.9766 29.618 34.4555 29.537 37.0098 29.4988C40.4077 29.4464 43.9152 29.394 47.1559 28.0691C50.4918 26.6823 53.2225 24.0803 55.6196 21.7833C57.2923 20.1153 59.8563 17.6562 61 17.6562C62.1437 17.6562 64.7077 20.1153 66.4042 21.7404C68.787 24.0374 71.513 26.6395 74.868 28.0262C78.1086 29.3702 81.6161 29.4226 85.014 29.4559C87.5684 29.4941 91.0711 29.5465 92.0004 30.4805C92.9297 31.4146 92.9869 34.9126 93.025 37.467C93.0774 40.8648 93.1298 44.3723 94.4547 47.613C95.8415 50.9489 98.4435 53.6796 100.741 56.0767C102.366 57.7733 104.825 60.3372 104.825 61.4809C104.825 62.6247 102.385 65.2077 100.76 66.9042ZM84.1085 46.0165C84.6417 46.5478 85.0647 47.1791 85.3533 47.8742C85.6419 48.5693 85.7905 49.3146 85.7905 50.0673C85.7905 50.8199 85.6419 51.5652 85.3533 52.2603C85.0647 52.9554 84.6417 53.5868 84.1085 54.118L57.421 80.8055C56.8897 81.3387 56.2584 81.7617 55.5633 82.0503C54.8682 82.339 54.1229 82.4876 53.3702 82.4876C52.6176 82.4876 51.8723 82.339 51.1772 82.0503C50.4821 81.7617 49.8507 81.3387 49.3195 80.8055L37.882 69.368C37.35 68.8361 36.928 68.2046 36.6401 67.5095C36.3522 66.8145 36.2041 66.0696 36.2041 65.3173C36.2041 64.565 36.3522 63.82 36.6401 63.125C36.928 62.43 37.35 61.7984 37.882 61.2665C38.4139 60.7345 39.0454 60.3126 39.7405 60.0247C40.4355 59.7368 41.1804 59.5886 41.9327 59.5886C42.685 59.5886 43.43 59.7368 44.125 60.0247C44.82 60.3126 45.4516 60.7345 45.9835 61.2665L53.375 68.6484L76.0165 46.0022C76.5485 45.4714 77.18 45.0507 77.8748 44.7642C78.5695 44.4776 79.3139 44.3308 80.0655 44.3321C80.817 44.3334 81.5609 44.4829 82.2546 44.7719C82.9484 45.0609 83.5783 45.4838 84.1085 46.0165Z" fill="#105CAD"/>
</svg>
